<?xml version="1.0" encoding="UTF-8"?>
<!DOCTYPE svg PUBLIC "-//W3C//DTD SVG 1.1//EN" "http://www.w3.org/Graphics/SVG/1.1/DTD/svg11.dtd">
<svg xmlns="http://www.w3.org/2000/svg" version="1.1" width="32px" height="32px" style="shape-rendering:geometricPrecision; text-rendering:geometricPrecision; image-rendering:optimizeQuality; fill-rule:evenodd; clip-rule:evenodd" xmlns:xlink="http://www.w3.org/1999/xlink">
<g><path style="opacity:0.94" fill="#c3e1f8" d="M 12.5,1.5 C 11.9114,4.50394 10.9114,7.33727 9.5,10C 10.2104,12.88 11.877,15.0467 14.5,16.5C 14.985,20.0956 15.3184,23.429 15.5,26.5C 15.5,27.5 15.5,28.5 15.5,29.5C 13.8333,29.5 12.1667,29.5 10.5,29.5C 10.1583,28.6618 9.49162,28.3284 8.5,28.5C 2.17002,24.146 0.00335738,18.146 2,10.5C 3.81984,5.51178 7.31984,2.51178 12.5,1.5 Z"/></g>
<g><path style="opacity:1" fill="#1fe2a1" d="M 12.5,1.5 C 13.5,1.5 14.5,1.5 15.5,1.5C 15.5,4.83333 15.5,8.16667 15.5,11.5C 14.3143,12.7054 14.3143,14.0387 15.5,15.5C 14.8333,15.5 14.5,15.8333 14.5,16.5C 11.877,15.0467 10.2104,12.88 9.5,10C 10.9114,7.33727 11.9114,4.50394 12.5,1.5 Z"/></g>
<g><path style="opacity:1" fill="#22b182" d="M 15.5,1.5 C 16.8333,1.5 18.1667,1.5 19.5,1.5C 18.9462,4.5617 18.4462,7.5617 18,10.5C 19.2373,7.55186 20.7373,4.88519 22.5,2.5C 23.1667,3.16667 23.8333,3.83333 24.5,4.5C 24.6019,9.39356 22.2686,12.0602 17.5,12.5C 16.8333,12.1667 16.1667,11.8333 15.5,11.5C 15.5,8.16667 15.5,4.83333 15.5,1.5 Z"/></g>
<g><path style="opacity:1" fill="#b4c583" d="M 20.5,-0.5 C 21.1667,-0.5 21.8333,-0.5 22.5,-0.5C 22.5,0.5 22.5,1.5 22.5,2.5C 20.7373,4.88519 19.2373,7.55186 18,10.5C 18.4462,7.5617 18.9462,4.5617 19.5,1.5C 20.3382,1.15829 20.6716,0.491622 20.5,-0.5 Z"/></g>
<g><path style="opacity:1" fill="#078ffa" d="M 24.5,4.5 C 29.1841,8.78127 30.6841,14.1146 29,20.5C 26.5915,26.6219 22.0915,29.6219 15.5,29.5C 15.5,28.5 15.5,27.5 15.5,26.5C 25.7694,23.9236 26.1027,20.2569 16.5,15.5C 16.5569,14.391 16.8902,13.391 17.5,12.5C 22.2686,12.0602 24.6019,9.39356 24.5,4.5 Z"/></g>
<g><path style="opacity:1" fill="#98bdcd" d="M 15.5,11.5 C 16.1667,11.8333 16.8333,12.1667 17.5,12.5C 16.8902,13.391 16.5569,14.391 16.5,15.5C 16.1667,15.5 15.8333,15.5 15.5,15.5C 14.3143,14.0387 14.3143,12.7054 15.5,11.5 Z"/></g>
<g><path style="opacity:1" fill="#34e3aa" d="M 6.5,16.5 C 7.5,16.5 8.5,16.5 9.5,16.5C 9.42613,20.5412 8.0928,21.2079 5.5,18.5C 5.86273,17.8165 6.19607,17.1499 6.5,16.5 Z"/></g>
<g><path style="opacity:1" fill="#27b584" d="M 15.5,15.5 C 15.8333,15.5 16.1667,15.5 16.5,15.5C 26.1027,20.2569 25.7694,23.9236 15.5,26.5C 15.3184,23.429 14.985,20.0956 14.5,16.5C 14.5,15.8333 14.8333,15.5 15.5,15.5 Z"/></g>
<g><path style="opacity:0.645" fill="#fdb340" d="M 8.5,28.5 C 9.49162,28.3284 10.1583,28.6618 10.5,29.5C 10.5,30.1667 10.5,30.8333 10.5,31.5C 9.83333,31.5 9.16667,31.5 8.5,31.5C 8.5,30.5 8.5,29.5 8.5,28.5 Z"/></g>
</svg>
